<svg xmlns="http://www.w3.org/2000/svg" width="488" height="80" viewBox="0 0 488 80">
  <g data-slot="ink" fill="#1B3A2F">
    <rect x="0" y="0" width="56" height="12"/>
    <rect x="0" y="0" width="12" height="40"/>
    <rect x="0" y="34" width="56" height="12"/>
    <rect x="44" y="34" width="12" height="46"/>
    <rect x="0" y="68" width="56" height="12"/>
    <rect x="72" y="0" width="56" height="12"/>
    <rect x="72" y="0" width="12" height="80"/>
    <rect x="116" y="0" width="12" height="80"/>
    <rect x="72" y="34" width="56" height="12"/>
    <rect x="144" y="0" width="12" height="80"/>
    <rect x="144" y="68" width="56" height="12"/>
    <rect x="216" y="0" width="12" height="68"/>
    <rect x="260" y="0" width="12" height="68"/>
    <rect x="216" y="68" width="56" height="12"/>
    <rect x="288" y="0" width="56" height="12"/>
    <rect x="288" y="0" width="12" height="80"/>
    <rect x="332" y="0" width="12" height="80"/>
    <rect x="288" y="34" width="56" height="12"/>
    <rect x="360" y="0" width="56" height="12"/>
    <rect x="360" y="0" width="12" height="80"/>
    <rect x="360" y="68" width="56" height="12"/>
    <rect x="404" y="34" width="12" height="46"/>
    <rect x="388" y="34" width="28" height="12"/>
    <rect x="432" y="0" width="56" height="12"/>
    <rect x="432" y="0" width="12" height="80"/>
    <rect x="432" y="34" width="56" height="12"/>
    <rect x="432" y="68" width="56" height="12"/>
  </g>
</svg>
