<svg width="747" height="229" viewBox="0 0 747 229" fill="none" xmlns="http://www.w3.org/2000/svg">
<path d="M39.4988 84.5326H70.1922C74.7208 84.5326 79.0816 84.1971 83.2746 83.5262C87.4677 82.8554 91.1576 81.5974 94.3444 79.7525C97.5311 77.7398 100.047 74.9724 101.892 71.4502C103.905 67.928 104.911 63.3156 104.911 57.613C104.911 51.9104 103.905 47.298 101.892 43.7758C100.047 40.2536 97.5311 37.57 94.3444 35.7251C91.1576 33.7124 87.4677 32.3706 83.2746 31.6997C79.0816 31.0288 74.7208 30.6934 70.1922 30.6934H39.4988V84.5326ZM-4.93859e-06 5.27012e-06H81.0104C92.2479 5.27012e-06 101.808 1.67724 109.691 5.03172C117.574 8.21846 123.948 12.4954 128.812 17.8626C133.843 23.2297 137.449 29.3516 139.63 36.2283C141.978 43.1049 143.152 50.2332 143.152 57.613C143.152 64.8251 141.978 71.9533 139.63 78.9977C137.449 85.8744 133.843 91.9963 128.812 97.3634C123.948 102.731 117.574 107.091 109.691 110.446C101.808 113.633 92.2479 115.226 81.0104 115.226H39.4988V179.632H-4.93859e-06V5.27012e-06ZM162.522 89.5643C163.025 81.1781 165.122 74.2176 168.812 68.6827C172.502 63.1479 177.198 58.7032 182.9 55.3487C188.603 51.9943 194.976 49.6461 202.021 48.3043C209.233 46.7948 216.445 46.0401 223.657 46.0401C230.198 46.0401 236.823 46.5432 243.532 47.5496C250.241 48.3882 256.363 50.1493 261.898 52.8329C267.433 55.5164 271.961 59.2902 275.484 64.1542C279.006 68.8505 280.767 75.1401 280.767 83.0231V150.699C280.767 156.57 281.102 162.189 281.773 167.556C282.444 172.923 283.618 176.948 285.295 179.632H249.067C248.396 177.619 247.809 175.606 247.306 173.594C246.971 171.413 246.719 169.233 246.551 167.052C240.849 172.923 234.14 177.032 226.425 179.38C218.709 181.728 210.826 182.902 202.776 182.902C196.57 182.902 190.783 182.148 185.416 180.638C180.049 179.129 175.353 176.78 171.327 173.594C167.302 170.407 164.115 166.382 161.767 161.518C159.587 156.654 158.497 150.867 158.497 144.158C158.497 136.778 159.755 130.74 162.27 126.044C164.954 121.18 168.308 117.323 172.334 114.471C176.527 111.62 181.223 109.523 186.423 108.182C191.79 106.672 197.157 105.498 202.524 104.659C207.891 103.821 213.174 103.15 218.374 102.647C223.573 102.144 228.186 101.389 232.211 100.382C236.236 99.3761 239.423 97.9505 241.771 96.1055C244.119 94.0928 245.21 91.2415 245.042 87.5516C245.042 83.694 244.371 80.675 243.029 78.4946C241.855 76.1464 240.178 74.3853 237.997 73.2113C235.985 71.8695 233.553 71.0309 230.702 70.6954C228.018 70.1922 225.083 69.9407 221.896 69.9407C214.852 69.9407 209.317 71.4502 205.291 74.4692C201.266 77.4882 198.918 82.5199 198.247 89.5643H162.522ZM245.042 115.981C243.532 117.323 241.604 118.413 239.255 119.251C237.075 119.922 234.643 120.509 231.959 121.012C229.444 121.516 226.76 121.935 223.909 122.27C221.057 122.606 218.206 123.025 215.355 123.528C212.671 124.031 209.988 124.702 207.304 125.541C204.788 126.38 202.524 127.554 200.511 129.063C198.666 130.405 197.157 132.166 195.983 134.346C194.809 136.527 194.222 139.294 194.222 142.649C194.222 145.835 194.809 148.519 195.983 150.699C197.157 152.88 198.75 154.641 200.763 155.983C202.776 157.157 205.124 157.995 207.807 158.499C210.491 159.002 213.258 159.253 216.11 159.253C223.154 159.253 228.605 158.079 232.463 155.731C236.32 153.383 239.172 150.616 241.017 147.429C242.861 144.074 243.952 140.72 244.287 137.365C244.79 134.011 245.042 131.327 245.042 129.315V115.981ZM369.128 148.938C374.16 148.938 378.605 147.932 382.462 145.919C386.32 143.907 389.507 141.223 392.023 137.869C394.538 134.514 396.383 130.74 397.557 126.547C398.899 122.186 399.57 117.658 399.57 112.962C399.57 107.595 399.067 102.563 398.061 97.8666C397.054 93.0026 395.377 88.7257 393.029 85.0358C390.681 81.3458 387.578 78.4107 383.72 76.2303C379.863 74.0499 374.999 72.9597 369.128 72.9597C364.097 72.9597 359.736 73.966 356.046 75.9787C352.524 77.9914 349.505 80.7588 346.989 84.281C344.641 87.6355 342.88 91.577 341.706 96.1055C340.699 100.466 340.196 105.079 340.196 109.943C340.196 114.639 340.615 119.335 341.454 124.031C342.46 128.56 344.054 132.669 346.234 136.359C348.582 140.049 351.601 143.068 355.291 145.416C358.981 147.764 363.593 148.938 369.128 148.938ZM433.534 171.329C433.534 176.529 432.779 182.483 431.27 189.192C429.928 195.901 426.909 202.107 422.213 207.809C417.517 213.68 410.724 218.627 401.834 222.653C392.945 226.678 381.037 228.691 366.109 228.691C359.736 228.691 353.195 227.852 346.486 226.175C339.944 224.665 333.906 222.233 328.372 218.879C323.004 215.525 318.476 211.164 314.786 205.797C311.264 200.597 309.251 194.308 308.748 186.928H344.221C345.899 193.637 349.169 198.249 354.033 200.765C358.897 203.448 364.516 204.79 370.889 204.79C380.953 204.79 388.249 201.771 392.777 195.733C397.474 189.695 399.738 182.064 399.57 172.839V155.731H399.067C395.209 162.608 389.674 167.723 382.462 171.078C375.418 174.265 367.954 175.858 360.071 175.858C350.343 175.858 341.957 174.181 334.913 170.826C327.868 167.304 322.082 162.608 317.553 156.738C313.025 150.699 309.67 143.739 307.49 135.856C305.477 127.805 304.471 119.335 304.471 110.446C304.471 102.06 305.645 94.009 307.993 86.2937C310.509 78.4107 314.115 71.534 318.811 65.6637C323.508 59.6257 329.294 54.8456 336.171 51.3234C343.215 47.8012 351.266 46.0401 360.323 46.0401C368.877 46.0401 376.34 47.6334 382.714 50.8202C389.255 54.0069 394.706 59.3741 399.067 66.9216H399.57V49.5623H433.534V171.329ZM462.297 49.5623H496.261V73.7144H496.765C498.442 69.6891 500.706 65.9992 503.557 62.6447C506.409 59.1225 509.679 56.1873 513.369 53.8392C517.059 51.3234 521.001 49.3945 525.194 48.0528C529.387 46.711 533.748 46.0401 538.276 46.0401C540.624 46.0401 543.224 46.4594 546.075 47.298V80.5072C544.398 80.1718 542.385 79.9202 540.037 79.7525C537.689 79.417 535.425 79.2493 533.244 79.2493C526.703 79.2493 521.168 80.3395 516.64 82.5199C512.111 84.7003 508.421 87.7193 505.57 91.577C502.886 95.2669 500.958 99.6277 499.784 104.659C498.609 109.691 498.022 115.142 498.022 121.012V179.632H462.297V49.5623ZM596.813 29.4355H561.088V5.27012e-06H596.813V29.4355ZM561.088 49.5623H596.813V179.632H561.088V49.5623ZM624.943 49.5623H658.907V67.6764H659.662C664.19 60.1288 670.061 54.6778 677.273 51.3234C684.485 47.8012 691.865 46.0401 699.412 46.0401C708.973 46.0401 716.772 47.3819 722.81 50.0654C729.016 52.5813 733.88 56.1873 737.402 60.8836C740.924 65.4121 743.356 71.0309 744.698 77.7398C746.207 84.281 746.962 91.577 746.962 99.6277V179.632H711.237V106.169C711.237 95.4346 709.56 87.4678 706.205 82.2683C702.851 76.9012 696.897 74.2176 688.343 74.2176C678.615 74.2176 671.57 77.1528 667.209 83.0231C662.849 88.7257 660.668 98.202 660.668 111.452V179.632H624.943V49.5623Z" fill="black"/>
</svg>
